<svg xmlns="http://www.w3.org/2000/svg" viewBox="0 0 39.56 39.56"><defs><style>.cls-1{fill:#2bdf82;}.cls-1,.cls-3{fill-rule:evenodd;}.cls-2{fill:#1a47d3;}.cls-3,.cls-4{fill:#fff;}</style></defs><title>Asset 49</title><g id="Layer_2" data-name="Layer 2"><g id="Layer_1-2" data-name="Layer 1"><path class="cls-1" d="M19.78,1.25A18.53,18.53,0,1,1,1.25,19.78,18.53,18.53,0,0,1,19.78,1.25"/><path class="cls-2" d="M32,7.56a17.29,17.29,0,1,0,5.06,12.22A17.27,17.27,0,0,0,32,7.56M19.78,0a19.77,19.77,0,1,1-14,5.79A19.73,19.73,0,0,1,19.78,0Z"/><path class="cls-3" d="M19.78,7.41A12.37,12.37,0,1,1,7.41,19.78,12.37,12.37,0,0,1,19.78,7.41"/><path class="cls-4" d="M27.64,11.92a11.11,11.11,0,1,0,3.26,7.86,11.09,11.09,0,0,0-3.26-7.86M19.78,6.16a13.62,13.62,0,1,1-9.63,4A13.59,13.59,0,0,1,19.78,6.16Z"/><path class="cls-2" d="M24.44,12.57a1.25,1.25,0,1,1-1.22,2.18A4.52,4.52,0,0,0,21,14.17a4.44,4.44,0,0,0-2.23.6,4.55,4.55,0,0,0-1.65,1.64,4.46,4.46,0,0,0-.62,2.22h0V21a4.8,4.8,0,0,0,6.83,4.2,1.25,1.25,0,1,1,1.05,2.26,7.26,7.26,0,0,1-7-.44,7.23,7.23,0,0,1-2.48-2.62A7.31,7.31,0,0,1,14,21V18.63h0a7.14,7.14,0,0,1,1-3.47,7,7,0,0,1,2.55-2.53h0A6.93,6.93,0,0,1,21,11.68a7,7,0,0,1,3.48.89"/><path class="cls-2" d="M13.46,19a1.25,1.25,0,0,1,0-2.5h7.8a1.25,1.25,0,0,1,0,2.5Z"/><path class="cls-2" d="M13.46,23.25a1.25,1.25,0,0,1,0-2.5h7.8a1.25,1.25,0,1,1,0,2.5Z"/></g></g></svg>