<svg xmlns="http://www.w3.org/2000/svg" viewBox="0 0 39.56 39.56"><defs><style>.cls-1{fill:#2bdf82;}.cls-1,.cls-2,.cls-4{fill-rule:evenodd;}.cls-3{fill:#828282;}.cls-4{fill:#fff;}</style></defs><title>Asset 14</title><g id="Layer_2" data-name="Layer 2"><g id="Layer_1-2" data-name="Layer 1"><path class="cls-1" d="M19.78,1.25A18.53,18.53,0,1,1,1.25,19.78,18.53,18.53,0,0,1,19.78,1.25"/><path class="cls-2" d="M19.78,1.25A18.53,18.53,0,1,1,1.25,19.78,18.53,18.53,0,0,1,19.78,1.25"/><path class="cls-3" d="M32,7.56a17.29,17.29,0,1,0,5.06,12.22A17.27,17.27,0,0,0,32,7.56M19.78,0a19.77,19.77,0,1,1-14,5.79A19.73,19.73,0,0,1,19.78,0Z"/><path class="cls-4" d="M19.78,3.62A16.16,16.16,0,1,1,3.62,19.78,16.16,16.16,0,0,1,19.78,3.62"/><path class="cls-3" d="M30.33,9.24a14.93,14.93,0,1,0,4.36,10.54A14.87,14.87,0,0,0,30.33,9.24M19.78,2.37A17.41,17.41,0,1,1,7.47,7.47,17.35,17.35,0,0,1,19.78,2.37Z"/><path class="cls-3" d="M25.26,11.09A1.25,1.25,0,1,1,24,13.27a5.78,5.78,0,0,0-2.93-.76,5.92,5.92,0,0,0-5.06,2.92,5.93,5.93,0,0,0-.81,2.9h0v2.85A6.12,6.12,0,0,0,16,24.06a6.2,6.2,0,0,0,5.05,3.18,6.15,6.15,0,0,0,3-.57,1.25,1.25,0,0,1,1.06,2.27,8.83,8.83,0,0,1-4.24.79,8.74,8.74,0,0,1-4.11-1.32,8.83,8.83,0,0,1-3-3.14,8.66,8.66,0,0,1-1.1-4v-2.9h0A8.39,8.39,0,0,1,17,11.14h0a8.43,8.43,0,0,1,8.31-.05"/><path class="cls-3" d="M11.82,18.52a1.25,1.25,0,0,1,0-2.5h9.65a1.25,1.25,0,0,1,0,2.5Z"/><path class="cls-3" d="M11.82,23.75a1.25,1.25,0,0,1,0-2.5h9.65a1.25,1.25,0,0,1,0,2.5Z"/></g></g></svg>