<svg xmlns="http://www.w3.org/2000/svg" viewBox="0 0 34.89 34.48"><defs><style>.cls-1,.cls-2{fill-rule:evenodd;}.cls-2{fill:#fff;}</style></defs><title>Asset 59</title><g id="Layer_2" data-name="Layer 2"><g id="Layer_1-2" data-name="Layer 1"><path class="cls-1" d="M7.16,1.25H32.69a1,1,0,0,1,1,1V27.73a1,1,0,0,1-1,1H7.16a1,1,0,0,1-1-1V2.2a1,1,0,0,1,1-1"/><path d="M32.39,2.5H7.45V27.44H32.39ZM7.16,0H32.69a2.19,2.19,0,0,1,1.55.65l.1.1a2.21,2.21,0,0,1,.55,1.45V27.73a2.2,2.2,0,0,1-.65,1.56h0a2.19,2.19,0,0,1-1.55.65H7.16A2.22,2.22,0,0,1,5,27.73V2.2A2.18,2.18,0,0,1,5.6.65,2.2,2.2,0,0,1,7.16,0Z"/><path class="cls-2" d="M2.59,5.8H27.34a1.35,1.35,0,0,1,1.35,1.34V31.89a1.35,1.35,0,0,1-1.35,1.34H2.59a1.34,1.34,0,0,1-1.34-1.34V7.14A1.34,1.34,0,0,1,2.59,5.8"/><path d="M27.34,7.05H2.59l-.06,0h0a.14.14,0,0,0,0,.07V31.89a.08.08,0,0,0,0,.06h0l.06,0H27.34l.07,0h0a.06.06,0,0,0,0-.06V7.14a.09.09,0,0,0,0-.07h0l-.07,0M2.59,4.55H27.34a2.59,2.59,0,0,1,1.83.76h0a2.6,2.6,0,0,1,.76,1.83V31.89a2.6,2.6,0,0,1-.76,1.83h0a2.59,2.59,0,0,1-1.83.76H2.59a2.58,2.58,0,0,1-1.82-.76h0A2.56,2.56,0,0,1,0,31.89V7.14A2.59,2.59,0,0,1,.76,5.31h0A2.61,2.61,0,0,1,2.59,4.55Z"/><path d="M8.45,21.27a1.25,1.25,0,0,1,2-1.55l2,2.57,8-9.53a1.25,1.25,0,0,1,1.91,1.61L13.4,25a1.89,1.89,0,0,1-.2.2,1.24,1.24,0,0,1-1.75-.2Z"/></g></g></svg>