<svg xmlns="http://www.w3.org/2000/svg" viewBox="0 0 31.21 31.21"><defs><style>.cls-1{fill:#fff;fill-rule:evenodd;}</style></defs><title>Asset 58</title><g id="Layer_2" data-name="Layer 2"><g id="Layer_1-2" data-name="Layer 1"><path class="cls-1" d="M2.66,1.25H28.55A1.41,1.41,0,0,1,30,2.66V28.55A1.42,1.42,0,0,1,28.55,30H2.66a1.41,1.41,0,0,1-1.41-1.41V2.66A1.41,1.41,0,0,1,2.66,1.25"/><path d="M28.55,2.5H2.66a.14.14,0,0,0-.11,0,.16.16,0,0,0,0,.11V28.55a.16.16,0,0,0,0,.09l0,0a.14.14,0,0,0,.11.05H28.55a.16.16,0,0,0,.11-.05h0a.16.16,0,0,0,.05-.11V2.66a.17.17,0,0,0-.16-.16M2.66,0H28.55a2.66,2.66,0,0,1,2.66,2.66V28.55a2.64,2.64,0,0,1-.78,1.87h0a2.66,2.66,0,0,1-1.88.78H2.66a2.64,2.64,0,0,1-1.88-.78l-.09-.1A2.64,2.64,0,0,1,0,28.55V2.66A2.66,2.66,0,0,1,2.66,0Z"/><path d="M8.83,17.4a1.25,1.25,0,0,1,1.95-1.55L13,18.6l8.46-10a1.25,1.25,0,1,1,1.9,1.61L13.92,21.34a1.89,1.89,0,0,1-.2.2,1.25,1.25,0,0,1-1.76-.2Z"/></g></g></svg>