<svg xmlns="http://www.w3.org/2000/svg" viewBox="0 0 31.95 40.63"><defs><style>.cls-1{fill:#fff;}.cls-1,.cls-3{fill-rule:evenodd;}.cls-2,.cls-3{fill:#828282;}.cls-4{fill:#1a47d3;}</style></defs><title>Asset 12</title><g id="Layer_2" data-name="Layer 2"><g id="Layer_1-2" data-name="Layer 1"><path class="cls-1" d="M11.14,38.2c0-3.6-2.52-6.54-5.48-6.66L3.49,6.93H30.7l-2.22,3.85L27,30.52l-.4,5.36A3.49,3.49,0,0,1,24.1,38.2Z"/><path class="cls-2" d="M8,32.63a2.87,2.87,0,0,0-1.83,0,1.13,1.13,0,0,1-.41.11,1.25,1.25,0,0,1-1.35-1.14L2.25,7.08a.76.76,0,0,1,0-.15A1.25,1.25,0,0,1,3.49,5.68H30.7a1.26,1.26,0,0,1,1.08,1.88L29.7,11.15,27.87,36a3.78,3.78,0,0,1-1.22,2.46,3.82,3.82,0,0,1-2.55,1H10a1.21,1.21,0,0,1-.88-.37,1.25,1.25,0,0,1,0-1.76,2.79,2.79,0,0,0,.82-1.7,2.83,2.83,0,0,0-2-3M6.78,30a5.07,5.07,0,0,1,2,.24,5.3,5.3,0,0,1,3.68,5.61A6,6,0,0,1,12.21,37H24.1A1.31,1.31,0,0,0,25,36.6a1.27,1.27,0,0,0,.41-.81l1.85-25.1a1.26,1.26,0,0,1,.2-.58l1.11-1.93H4.85Z"/><path class="cls-3" d="M6.65,3.26V4.9H26.41V3.26a25.29,25.29,0,0,0-19.76,0"/><path class="cls-2" d="M9.21,3.65H23.85a23.87,23.87,0,0,0-14.64,0M5.42,4.91l0-1.55a1.26,1.26,0,0,1,.77-1.25,26.47,26.47,0,0,1,20.64,0,1.24,1.24,0,0,1,.85,1.18V4.9a1.25,1.25,0,0,1-1.25,1.25H6.66A1.25,1.25,0,0,1,5.42,4.91Z"/><path class="cls-3" d="M8.05,29.46a5,5,0,1,1-5,5,5,5,0,0,1,5-5"/><path class="cls-2" d="M11.68,31.79A3.72,3.72,0,0,0,6.37,37l.06,0a3.71,3.71,0,0,0,5.19.06l.06-.06a3.71,3.71,0,0,0,0-5.25M9.05,28.21a6.21,6.21,0,0,1,4.4,10.6l-.08.07a6.21,6.21,0,0,1-8.71-.07l-.07-.08A6.2,6.2,0,0,1,9.05,28.21Z"/><rect class="cls-4" x="1.25" y="4.92" width="29.45" height="2.01"/><path class="cls-2" d="M30.7,8.18H1.25A1.25,1.25,0,0,1,0,6.93v-2A1.25,1.25,0,0,1,1.25,3.67H30.7A1.25,1.25,0,0,1,32,4.92v2A1.25,1.25,0,0,1,30.7,8.18"/><path class="cls-3" d="M16.22,16a4.07,4.07,0,1,1-4.07,4.06A4.06,4.06,0,0,1,16.22,16"/><path class="cls-2" d="M18.21,18.06a2.82,2.82,0,1,0,.82,2,2.81,2.81,0,0,0-.82-2m-2-3.32a5.31,5.31,0,1,1-3.76,1.55A5.31,5.31,0,0,1,16.22,14.74Z"/></g></g></svg>