<svg xmlns="http://www.w3.org/2000/svg" viewBox="0 0 40.63 30.73"><defs><style>.cls-1,.cls-2{fill:#828282;}.cls-1{fill-rule:evenodd;}.cls-3{fill:#fff;}</style></defs><title>Asset 9</title><g id="Layer_2" data-name="Layer 2"><g id="Layer_1-2" data-name="Layer 1"><path class="cls-1" d="M1.25,25.28H16v.3h8.69v-.3H39.38c0,1.75-2.14,4.2-5,4.2H6.23c-2.77,0-5-2.49-5-4.2"/><path class="cls-2" d="M15.15,26.53H3a4.77,4.77,0,0,0,.7.73,4,4,0,0,0,2.51,1H34.4a4,4,0,0,0,2.54-1,4.41,4.41,0,0,0,.7-.74H25.48a1.25,1.25,0,0,1-.82.3H16a1.25,1.25,0,0,1-.82-.3M1.25,24H16a1.25,1.25,0,0,1,.81.3h7.07a1.25,1.25,0,0,1,.81-.3H39.38a1.25,1.25,0,0,1,1.25,1.25,5.49,5.49,0,0,1-2.08,3.9,6.45,6.45,0,0,1-4.15,1.55H6.23a6.45,6.45,0,0,1-4.12-1.57A5.5,5.5,0,0,1,0,25.28,1.25,1.25,0,0,1,1.25,24Z"/><rect class="cls-3" x="4.84" y="1.25" width="30.95" height="24.03"/><path class="cls-2" d="M35.79,26.53H4.84a1.25,1.25,0,0,1-1.25-1.25v-24A1.25,1.25,0,0,1,4.84,0h31A1.25,1.25,0,0,1,37,1.25v24a1.25,1.25,0,0,1-1.25,1.25M6.09,24H34.54V2.5H6.09Z"/><path class="cls-3" d="M16,22.39h8.69a1.24,1.24,0,0,1,1.25,1.25v.86a1.24,1.24,0,0,1-1.25,1.25H16a1.25,1.25,0,0,1-1.26-1.25v-.86A1.25,1.25,0,0,1,16,22.39"/><path class="cls-2" d="M18.66,10.27a1.25,1.25,0,0,1-2.5,0V7.48a1.25,1.25,0,0,1,1.25-1.25h5.85a1.25,1.25,0,0,1,1.25,1.25v2.79a1.25,1.25,0,0,1-2.5,0V8.73H18.66Z"/><path class="cls-1" d="M14.43,11.26H26.24v6.62a1.18,1.18,0,0,1-1.18,1.18H15.61a1.18,1.18,0,0,1-1.18-1.18Z"/><path class="cls-2" d="M25,12.51H15.68v5.3H25ZM14.43,10H26.24a1.25,1.25,0,0,1,1.25,1.25v6.62a2.4,2.4,0,0,1-.71,1.71h0a2.42,2.42,0,0,1-1.71.71H15.61a2.43,2.43,0,0,1-1.72-.71h0a2.43,2.43,0,0,1-.71-1.72V11.26A1.25,1.25,0,0,1,14.43,10Z"/></g></g></svg>