<svg xmlns="http://www.w3.org/2000/svg" viewBox="0 0 38.34 28.9"><defs><style>.cls-1{fill:#fff;fill-rule:evenodd;}.cls-2{fill:#828282;}</style></defs><title>Asset 11</title><g id="Layer_2" data-name="Layer 2"><g id="Layer_1-2" data-name="Layer 1"><path class="cls-1" d="M2.29,1.25H36a1,1,0,0,1,1.05,1V26.61a1,1,0,0,1-1.05,1H2.29a1,1,0,0,1-1-1V2.29a1,1,0,0,1,1-1"/><path class="cls-2" d="M35.84,2.5H2.5V26.4H35.84ZM2.29,0H36a2.32,2.32,0,0,1,1.62.67h0a2.31,2.31,0,0,1,.67,1.61V26.61a2.28,2.28,0,0,1-.68,1.61h0A2.32,2.32,0,0,1,36,28.9H2.29a2.28,2.28,0,0,1-1.61-.67h0A2.31,2.31,0,0,1,0,26.61V2.29A2.29,2.29,0,0,1,.67.68h0A2.31,2.31,0,0,1,2.29,0Z"/><path class="cls-2" d="M2.43,28.22a1.25,1.25,0,0,1-1.77,0,1.27,1.27,0,0,1,0-1.77l7.76-7.76a1.27,1.27,0,0,1,1.77,0,1.25,1.25,0,0,1,0,1.77Z"/><path class="cls-2" d="M.78,2.59A1.24,1.24,0,0,1,.71.83,1.26,1.26,0,0,1,2.47.76L17,14.23h0a3.21,3.21,0,0,0,2.18.86,3.17,3.17,0,0,0,2.15-.87l.07-.06L35.87.76a1.25,1.25,0,1,1,1.69,1.83L23.1,16,23,16a5.65,5.65,0,0,1-7.71,0L.78,2.59"/><path class="cls-2" d="M37.62,26.45a1.25,1.25,0,1,1-1.77,1.77L28.1,20.46a1.25,1.25,0,0,1,0-1.77,1.27,1.27,0,0,1,1.77,0Z"/></g></g></svg>