<svg xmlns="http://www.w3.org/2000/svg" viewBox="0 0 38.97 34.32"><defs><style>.cls-1,.cls-2{fill:#828282;}.cls-1{fill-rule:evenodd;}</style></defs><title>Asset 16</title><g id="Layer_2" data-name="Layer 2"><g id="Layer_1-2" data-name="Layer 1"><path class="cls-1" d="M19.49,6.62,17.23,4.36A9.51,9.51,0,0,0,4.49,3.17C.61,6.25.11,12.85,3.55,16.65L19.49,33.07,35.37,16.73c3.51-4.07,3-10.48-.88-13.56A9.49,9.49,0,0,0,21.76,4.36Z"/><path class="cls-2" d="M18.11,3.47,19.5,4.86l1.34-1.35A11,11,0,0,1,27.89.05a10.24,10.24,0,0,1,7.38,2.14l.28.24a10.21,10.21,0,0,1,3.4,7,11.18,11.18,0,0,1-2.36,7.74h0l-.26.31-.07.08L20.36,34a1.25,1.25,0,0,1-1.76,0l-16-16.46c-.13-.14-.26-.3-.39-.46A10.8,10.8,0,0,1,0,9.54,10.42,10.42,0,0,1,3.21,2.63l.07-.07.43-.37A10.23,10.23,0,0,1,11.08.05a11.13,11.13,0,0,1,7,3.39Zm.5,4L16.35,5.24l-.09-.09a8.58,8.58,0,0,0-5.4-2.62A7.76,7.76,0,0,0,5.27,4.15L5,4.41l-.06.06A7.92,7.92,0,0,0,2.52,9.71a8.32,8.32,0,0,0,1.66,5.76l.29.34,15,15.47,15-15.4.19-.22a8.75,8.75,0,0,0,1.82-6,7.75,7.75,0,0,0-2.54-5.34l-.2-.16a7.79,7.79,0,0,0-5.6-1.62A8.52,8.52,0,0,0,22.67,5.2L20.38,7.5a1.26,1.26,0,0,1-1.77,0Z"/></g></g></svg>