<svg xmlns="http://www.w3.org/2000/svg" viewBox="0 0 338.54 88.46"><defs><style>.cls-1{fill:#1a47d4;}.cls-2,.cls-3{fill:lime;}.cls-2{fill-rule:evenodd;}</style></defs><title>Asset 8</title><g id="Layer_2" data-name="Layer 2"><g id="Layer_1-2" data-name="Layer 1"><path d="M69.29,31.15V26.46A6.27,6.27,0,0,0,67.39,22,6.74,6.74,0,0,0,58,22a6.24,6.24,0,0,0-1.91,4.49v4.69A6.26,6.26,0,0,0,58,35.65a6.76,6.76,0,0,0,9.4,0,6.29,6.29,0,0,0,1.9-4.5m7.92-4.69v4.69a14.1,14.1,0,0,1-4.29,10.12,14.57,14.57,0,0,1-20.47,0,14.1,14.1,0,0,1-4.29-10.12V26.46a14.1,14.1,0,0,1,4.29-10.12,14.6,14.6,0,0,1,20.47,0A14.1,14.1,0,0,1,77.21,26.46Zm49.6,13.83a4,4,0,0,1-7.92,0V16.11a4,4,0,0,1,7.92,0Zm0-36.06a4,4,0,1,1-4-4A4,4,0,0,1,126.81,4.23Zm-36.12,9.5a14.6,14.6,0,0,1,16.84,2.61,14.1,14.1,0,0,1,4.29,10.12V40.29a4,4,0,0,1-7.92,0V26.46A6.24,6.24,0,0,0,102,22a6.74,6.74,0,0,0-9.4,0,6.27,6.27,0,0,0-1.9,4.49V40.29a4,4,0,1,1-7.92,0V4.23a4,4,0,1,1,7.92,0Zm118.42,2.94.33-.33a14.61,14.61,0,0,1,20.48,0,14.13,14.13,0,0,1,4.28,10.12V40.29a4,4,0,1,1-7.91,0V26.46A6.28,6.28,0,0,0,224.38,22a6.74,6.74,0,0,0-9.4,0,6.28,6.28,0,0,0-1.91,4.49V40.29a4,4,0,1,1-7.91,0V26.46A6.28,6.28,0,0,0,203.25,22a6.74,6.74,0,0,0-9.4,0,6.28,6.28,0,0,0-1.91,4.49V40.29a4,4,0,1,1-7.91,0V16.11A4,4,0,0,1,191.36,14a14.61,14.61,0,0,1,17.43,2.3Zm40.33,23.62a4,4,0,1,1-7.91,0V16.11a4,4,0,1,1,7.91,0Zm0-36.06a4,4,0,1,1-3.95-4A4,4,0,0,1,249.44,4.23ZM273,12.15a4,4,0,0,1,0,7.91h-3V34.87a1.5,1.5,0,0,0,.36,1.07,1.79,1.79,0,0,0,1.23.39h5a4,4,0,1,1,0,7.92h-5a9.45,9.45,0,0,1-6.73-2.66,9.28,9.28,0,0,1-2.78-6.72V20.06h-2.95a4,4,0,1,1,0-7.91h2.95V4.23a4,4,0,0,1,7.92,0v7.92ZM36.67,41.59A3.86,3.86,0,0,1,35.79,43h0l0,0v0l0,0h0a3.91,3.91,0,0,1-1.36.85l-.07,0h0a3.78,3.78,0,0,1-1.15.22h-.3A3.72,3.72,0,0,1,31.64,44h0l-.07,0a3.7,3.7,0,0,1-1.28-.78h0l-.05-.05h0l-.05,0h0a4,4,0,0,1-.9-1.42h0l0-.07h0l0-.07a2.17,2.17,0,0,1-.07-.24L23.28,19.51,17.45,41.27c0,.08-.05.16-.07.24l0,.07h0A4,4,0,0,1,16.47,43h0l0,0,0,0,0,0h0A3.82,3.82,0,0,1,15,44l-.06,0h0a3.79,3.79,0,0,1-1.16.22h-.29A3.79,3.79,0,0,1,12.31,44h0l-.07,0A3.84,3.84,0,0,1,11,43.21h0l0-.05h0l-.05,0h0a3.9,3.9,0,0,1-.91-1.42h0l0-.07h0l0-.07-.06-.24L.14,5.25a3.95,3.95,0,1,1,7.63-2L13.62,25,19.45,3.25c0-.11.06-.21.1-.32h0l0-.07h0l0-.07h0a3.89,3.89,0,0,1,.87-1.33l0,0,0,0A3.9,3.9,0,0,1,21.72.6h0l.07,0h0l.06,0h0L22,.5h0A3.91,3.91,0,0,1,23.14.28h.27A3.79,3.79,0,0,1,24.58.5h0l.07,0h0l.07,0h0l.08,0h0a3.92,3.92,0,0,1,1.23.83l.06.06h0A3.82,3.82,0,0,1,27,2.85l0,.07h0c0,.11.07.21.1.32L32.94,25l5.84-21.8a4,4,0,0,1,7.64,2l-9.65,36a2.17,2.17,0,0,1-.07.24l0,.07Zm105.14-1.3a4,4,0,0,1-7.92,0V16.11A4,4,0,0,1,141.23,14a14.6,14.6,0,0,1,17.42,2.3,14.09,14.09,0,0,1,4.28,10.12V40.29a4,4,0,1,1-7.91,0V26.46A6.28,6.28,0,0,0,153.11,22a6.74,6.74,0,0,0-9.4,0,6.27,6.27,0,0,0-1.9,4.49Z"/><path class="cls-1" d="M117.51,72.85h-6.39V65.42h6.39a3.48,3.48,0,0,1,1.36.28,3.6,3.6,0,0,1,1.15.78,4,4,0,0,1,.8,1.22,3.85,3.85,0,0,1,.28,1.44,3.79,3.79,0,0,1-.25,1.34,3.69,3.69,0,0,1-.7,1.18l-.14.13a3.51,3.51,0,0,1-2.5,1.06m7.1,5a8.13,8.13,0,0,0-1.52-2.45l-.46-.5.46-.51A7.76,7.76,0,0,0,124.61,72a7.81,7.81,0,0,0,0-5.78A7.74,7.74,0,0,0,120.42,62a7.38,7.38,0,0,0-2.91-.59H109.1a2,2,0,0,0-2,2v23a2,2,0,0,0,.59,1.43,2,2,0,0,0,1.43.59h8.4a7.62,7.62,0,0,0,2.93-.58,7.83,7.83,0,0,0,2.48-1.7h0l.15-.17a7.8,7.8,0,0,0,1.55-8.13Zm-7.11,6.54h-6.38V77h6.38a3.45,3.45,0,0,1,1.36.28,3.4,3.4,0,0,1,1.15.78h0a3.65,3.65,0,0,1,.8,1.21,3.83,3.83,0,0,1,.28,1.43,3.79,3.79,0,0,1-.94,2.52l-.14.14a3.73,3.73,0,0,1-1.14.78A3.53,3.53,0,0,1,117.5,84.42Zm60.7-15.18a2,2,0,0,0-.59,1.43V86.44a2,2,0,0,0,.59,1.43,2.07,2.07,0,0,0,1.44.59,2,2,0,0,0,1.43-.59h0a2,2,0,0,0,.59-1.43V70.67a2,2,0,0,0-.59-1.43h0a2,2,0,0,0-1.43-.59A2.07,2.07,0,0,0,178.2,69.24Zm0-7.35a2,2,0,0,0-.59,1.43v.16a2,2,0,0,0,2,2,2,2,0,0,0,1.43-.59,2,2,0,0,0,.59-1.43v-.16a2,2,0,0,0-.59-1.43h0a2,2,0,0,0-1.43-.59A2,2,0,0,0,178.2,61.89Zm-18.91,7.35a2,2,0,0,0-1.43-.59,7.64,7.64,0,0,0-1.61.17,8.27,8.27,0,0,0-1.52.52l-.46.22-.38-.35a2,2,0,0,0-.64-.42,2,2,0,0,0-2.18.45h0a2,2,0,0,0-.58,1.43V86.44a2,2,0,0,0,.58,1.43h0a2,2,0,0,0,1.43.59,2,2,0,0,0,1.43-.59,2,2,0,0,0,.59-1.43V75.91a3.13,3.13,0,0,1,.25-1.22,3.35,3.35,0,0,1,.7-1h0a3.41,3.41,0,0,1,2.38-1,2,2,0,0,0,1.43-3.46Zm28.71,0a2,2,0,0,0-.59,1.43V86.44a2,2,0,0,0,.59,1.43,2,2,0,0,0,1.43.59,2,2,0,0,0,1.43-.59h0a2,2,0,0,0,.59-1.43V75.91a3.13,3.13,0,0,1,.25-1.22,3.35,3.35,0,0,1,.7-1,3.46,3.46,0,0,1,1.1-.71,3.27,3.27,0,0,1,1.29-.26,3.43,3.43,0,0,1,1.28.25,3.28,3.28,0,0,1,1.1.72,3,3,0,0,1,.7,1,3.09,3.09,0,0,1,.25,1.22V86.36a2,2,0,0,0,.59,1.43h0a2,2,0,0,0,1.43.59,2,2,0,0,0,1.43-.59,2,2,0,0,0,.59-1.43V75.91a6.94,6.94,0,0,0-.56-2.78A7.25,7.25,0,0,0,200,70.76a7.47,7.47,0,0,0-5.19-2.11,7.64,7.64,0,0,0-1.61.17,7.18,7.18,0,0,0-1.52.52l-.47.21-.37-.35a2.13,2.13,0,0,0-.64-.41,2,2,0,0,0-.75-.14A2,2,0,0,0,188,69.24ZM172.62,84.93a2,2,0,0,0-1.42-.58h-2.54V63.4a2,2,0,0,0-.59-1.43h0a2,2,0,0,0-2.87,0h0a2,2,0,0,0-.59,1.43V83.69a5,5,0,0,0,.33,1.79,4.55,4.55,0,0,0,.92,1.49,4.46,4.46,0,0,0,1.47,1,4.34,4.34,0,0,0,1.5.35h2.37a2,2,0,0,0,1.42-3.44Zm-38.25-9v0a3.13,3.13,0,0,1,.25-1.22,3.22,3.22,0,0,1,.71-1,3.31,3.31,0,0,1,1.09-.71,3.27,3.27,0,0,1,1.29-.26,3.41,3.41,0,0,1,2.39,1,3.35,3.35,0,0,1,.7,1,3.27,3.27,0,0,1,.24,1.22v.78h-6.67Zm8.09,9a2,2,0,0,0-1.43-.58h-6.66V80.73h8.69a2,2,0,0,0,2-2v-2.8a7.11,7.11,0,0,0-.56-2.78,7.31,7.31,0,0,0-4-3.93,7.32,7.32,0,0,0-2.8-.55,7.31,7.31,0,0,0-5.19,2.12h0a7.19,7.19,0,0,0-1.62,2.37,7.06,7.06,0,0,0-.56,2.77v7.78a5,5,0,0,0,.32,1.79,4.58,4.58,0,0,0,.93,1.49A4.32,4.32,0,0,0,133,88a4.39,4.39,0,0,0,1.51.35H141a2,2,0,0,0,2-2A2,2,0,0,0,142.46,84.93Z"/><path class="cls-2" d="M295,34.73v8.13l7.64-3.71A19.38,19.38,0,1,0,295,34.73"/><path class="cls-1" d="M293.72,42.86v-7.6a20.58,20.58,0,1,1,9,5.22l-7.13,3.46a1.2,1.2,0,0,1-.62.17,1.25,1.25,0,0,1-1.25-1.25m2.5-8.13v6.13L302.07,38A1.28,1.28,0,0,1,303,38a18.09,18.09,0,1,0-7.15-4.12,1.22,1.22,0,0,1,.39.9Z"/><path class="cls-3" d="M338.54,19.69a1.25,1.25,0,1,1-2.49,0A24.61,24.61,0,0,0,333,8.26a1.25,1.25,0,1,1,2.18-1.21,27.36,27.36,0,0,1,2.47,6.11,27,27,0,0,1,.9,6.53"/><path class="cls-1" d="M305.89,15.79a1.25,1.25,0,0,1-2.49,0,4.83,4.83,0,0,1,2.39-4.24,4.8,4.8,0,0,1,2.43-.66,4.79,4.79,0,0,1,4.19,2.46,4.77,4.77,0,0,1,.62,2.42h0a7.55,7.55,0,0,1-2.12,5.3,4.94,4.94,0,0,0-1.44,3.31,1.25,1.25,0,1,1-2.5,0,7,7,0,0,1,2-4.87,5.47,5.47,0,0,0,1.56-3.74h0v0a2.41,2.41,0,0,0-.3-1.18,2.34,2.34,0,0,0-.85-.86,2.37,2.37,0,0,0-1.17-.32,2.31,2.31,0,0,0-1.17.32,2.19,2.19,0,0,0-.85.86,2.31,2.31,0,0,0-.31,1.18"/><path class="cls-1" d="M307,29.17a1.25,1.25,0,0,1,2.5,0v.18a1.25,1.25,0,1,1-2.5,0Z"/></g></g></svg>