<svg xmlns="http://www.w3.org/2000/svg" viewBox="0 0 358.39 88.46"><defs><style>.cls-1,.cls-3{fill:lime;}.cls-1,.cls-4{fill-rule:evenodd;}.cls-2{fill:#1a47d4;}</style></defs><title>Asset 8</title><g id="Layer_2" data-name="Layer 2"><g id="Layer_1-2" data-name="Layer 1"><path class="cls-1" d="M314.82,34.73v8.13l7.64-3.71a19.38,19.38,0,1,0-7.64-4.42"/><path class="cls-2" d="M313.57,42.86v-7.6a20.59,20.59,0,1,1,9,5.22l-7.13,3.46a1.18,1.18,0,0,1-.62.17,1.25,1.25,0,0,1-1.25-1.25m2.5-8.13v6.13L321.92,38a1.28,1.28,0,0,1,.9-.07,18.09,18.09,0,1,0-7.15-4.12,1.19,1.19,0,0,1,.4.9Z"/><path class="cls-3" d="M358.39,19.69a1.25,1.25,0,0,1-2.49,0,24.64,24.64,0,0,0-.82-5.92,24.19,24.19,0,0,0-2.24-5.54,1.26,1.26,0,0,1,.49-1.7,1.25,1.25,0,0,1,1.69.49,26.73,26.73,0,0,1,3.37,12.64"/><path class="cls-2" d="M325.75,15.79a1.25,1.25,0,0,1-2.49,0,4.76,4.76,0,0,1,.61-2.44,4.85,4.85,0,0,1,1.77-1.8,4.8,4.8,0,0,1,4.86,0,4.93,4.93,0,0,1,1.77,1.8,4.86,4.86,0,0,1,.61,2.42h0a7.55,7.55,0,0,1-2.13,5.3,4.94,4.94,0,0,0-1.44,3.31,1.25,1.25,0,1,1-2.5,0,7,7,0,0,1,2-4.87,5.47,5.47,0,0,0,1.57-3.74h0v0a2.3,2.3,0,0,0-.3-1.18,2.32,2.32,0,0,0-4,0,2.3,2.3,0,0,0-.3,1.18"/><path class="cls-2" d="M326.82,29.17a1.25,1.25,0,0,1,2.5,0v.18a1.25,1.25,0,1,1-2.5,0Z"/><path d="M59.08,40.29a4,4,0,0,1-7.92,0V4.23a4,4,0,1,1,7.92,0Z"/><path d="M80.21,40.29a4,4,0,1,1-7.92,0V26.46a4,4,0,1,1,7.92,0Z"/><path d="M59.08,26.46a4,4,0,0,1-7.92,0,14.1,14.1,0,0,1,4.29-10.12,14.6,14.6,0,0,1,20.47,0,14.1,14.1,0,0,1,4.29,10.12,4,4,0,1,1-7.92,0A6.27,6.27,0,0,0,70.39,22,6.75,6.75,0,0,0,61,22a6.27,6.27,0,0,0-1.9,4.49"/><path d="M240.76,4.23a4,4,0,1,1-4-4A4,4,0,0,1,240.76,4.23Zm0,36.06a4,4,0,1,1-7.92,0V16.11a4,4,0,1,1,7.92,0Z"/><path d="M251.26,4.23a4,4,0,1,1,7.92,0v7.92h3a4,4,0,0,1,0,7.91h-3V34.87a1.5,1.5,0,0,0,.36,1.07,1.79,1.79,0,0,0,1.23.39h5a4,4,0,1,1,0,7.92h-5A9.45,9.45,0,0,1,254,41.59a9.28,9.28,0,0,1-2.78-6.72V20.06h-2.95a4,4,0,1,1,0-7.91h2.95Z"/><path d="M17.44,41.31a4,4,0,0,1-7.64-2L19.46,3.21a4,4,0,1,1,7.64,2Z"/><path d="M36.76,39.27a4,4,0,1,1-7.64,2L19.46,5.25a4,4,0,0,1,7.64-2Z"/><path d="M17.44,39.27a4,4,0,1,1-7.64,2L.13,5.25a4,4,0,1,1,7.64-2Z"/><path d="M36.76,41.31a4,4,0,1,1-7.64-2L38.78,3.21a4,4,0,0,1,7.64,2Z"/><path d="M207.39,14.5h0l0-.08h0l0-.07h0l0-.07v0a4.13,4.13,0,0,1,.88-1.32,3.84,3.84,0,0,1,1.32-.87h0l.06,0h0l.07,0h0l.08,0h0a3.87,3.87,0,0,1,1-.18h.48a4,4,0,0,1,1,.18h0l.08,0h0l.06,0h0l.07,0h0a3.93,3.93,0,0,1,2.19,2.19v0l0,.07h0l0,.07h0l0,.08h0a2.17,2.17,0,0,1,.07.24l2.66,9.93,2.68-10a3.94,3.94,0,1,1,7.62,2l-6.48,24.16-.06.24h0l0,.08h0l0,.07h0l0,.07h0a3.89,3.89,0,0,1-.87,1.33,4.16,4.16,0,0,1-1.32.87h0l-.06,0h0l-.07,0h0l-.08,0h0a4,4,0,0,1-1,.18h-.48a4,4,0,0,1-1-.18h0l-.08,0h0l-.06,0h0l-.07,0h0a4.1,4.1,0,0,1-1.32-.87,3.89,3.89,0,0,1-.87-1.33h0l0-.07h0l0-.07h0l0-.08h0a2.17,2.17,0,0,1-.07-.24L211.15,31l-2.67,9.94-.06.24h0l0,.08h0l0,.07h0l0,.07h0a3.89,3.89,0,0,1-.87,1.33,4.16,4.16,0,0,1-1.32.87h0l-.07,0h0l-.07,0h0l-.08,0h0a4,4,0,0,1-1,.18h-.48a4,4,0,0,1-1-.18h0l-.08,0h0l-.06,0h0l-.07,0h0a4.1,4.1,0,0,1-1.32-.87,3.89,3.89,0,0,1-.87-1.33h0l0-.07h0l0-.07h0l0-.08h0a2.17,2.17,0,0,1-.07-.24l-6.47-24.16a3.94,3.94,0,1,1,7.62-2l2.67,10,2.66-9.93c0-.08.05-.16.07-.24"/><path d="M128.26,40.29a4,4,0,0,1-7.92,0V16.11a4,4,0,1,1,7.92,0Z"/><path d="M128.26,26.46a4,4,0,1,1-7.92,0,14.1,14.1,0,0,1,4.29-10.12,14.62,14.62,0,0,1,10.23-4.19v7.91a6.73,6.73,0,0,0-4.7,1.91,6.27,6.27,0,0,0-1.9,4.49"/><path class="cls-4" d="M134.86,12.15a5.15,5.15,0,0,0,0,7.91,10.79,10.79,0,0,1,1.13.1,3.13,3.13,0,0,0,1.57-.21c3.36-1.4,2.73-7.8-2.7-7.8"/><path d="M280.39,40.29a4,4,0,1,1-7.92,0V4.23a4,4,0,1,1,7.92,0Z"/><path d="M301.52,40.29a4,4,0,1,1-7.92,0V26.46a4,4,0,1,1,7.92,0Z"/><path d="M280.39,26.46a4,4,0,1,1-7.92,0,14.1,14.1,0,0,1,4.29-10.12,14.6,14.6,0,0,1,20.47,0,14.1,14.1,0,0,1,4.29,10.12,4,4,0,1,1-7.92,0A6.24,6.24,0,0,0,291.69,22a6.74,6.74,0,0,0-9.4,0,6.27,6.27,0,0,0-1.9,4.49"/><path d="M94,32.58v2.29a1.46,1.46,0,0,0,.37,1.07,1.74,1.74,0,0,0,1.22.39H106a4,4,0,1,1,0,7.92H95.57a9.46,9.46,0,0,1-6.73-2.66,9.28,9.28,0,0,1-2.78-6.72V24.67a14.13,14.13,0,0,1,4.29-10.12,14.6,14.6,0,0,1,20.47,0,14.13,14.13,0,0,1,4.29,10.12,2.17,2.17,0,0,1,0,.26v3.7a4,4,0,0,1-3.95,3.95Zm0-7.91h13.21a6.29,6.29,0,0,0-1.9-4.49,6.76,6.76,0,0,0-9.4,0A6.26,6.26,0,0,0,94,24.67Z"/><path d="M151.11,32.58v2.29a1.5,1.5,0,0,0,.36,1.07,1.75,1.75,0,0,0,1.23.39h10.39a4,4,0,0,1,0,7.92H152.7A9.45,9.45,0,0,1,146,41.59a9.28,9.28,0,0,1-2.78-6.72V24.67a14.13,14.13,0,0,1,4.29-10.12,14.6,14.6,0,0,1,20.47,0,14.13,14.13,0,0,1,4.28,10.12v4a4,4,0,0,1-3.95,3.95Zm0-7.91h13.21a6.3,6.3,0,0,0-1.91-4.49,6.76,6.76,0,0,0-9.4,0A6.29,6.29,0,0,0,151.11,24.67Z"/><path class="cls-2" d="M141.46,72.85h-6.38V65.42h6.38a3.45,3.45,0,0,1,1.36.28,3.4,3.4,0,0,1,1.15.78,3.8,3.8,0,0,1,.8,1.22,3.85,3.85,0,0,1,.28,1.44,4,4,0,0,1-.24,1.34,4.1,4.1,0,0,1-.7,1.18l-.14.13a3.6,3.6,0,0,1-1.15.78,3.45,3.45,0,0,1-1.36.28m7.1,5A7.76,7.76,0,0,0,147,75.43l-.46-.5.46-.51A8,8,0,0,0,148.57,72a7.81,7.81,0,0,0,0-5.78A7.74,7.74,0,0,0,144.38,62a7.46,7.46,0,0,0-2.92-.59h-8.41a2,2,0,0,0-2,2v23a2,2,0,0,0,2,2h8.41a7.44,7.44,0,0,0,5.4-2.28h0L147,86a7.9,7.9,0,0,0,2.07-5.31A7.81,7.81,0,0,0,148.56,77.88Zm-7.1,6.54h-6.38V77h6.38a3.52,3.52,0,0,1,1.36.28,3.6,3.6,0,0,1,1.15.78h0a3.62,3.62,0,0,1,.79,1.21,3.85,3.85,0,0,1,0,2.78,3.65,3.65,0,0,1-.7,1.17l-.14.14a3.61,3.61,0,0,1-1.14.78A3.45,3.45,0,0,1,141.46,84.42Zm60.7-15.18a2,2,0,0,0-.59,1.43V86.44a2,2,0,0,0,.59,1.43,2,2,0,0,0,1.43.59,2,2,0,0,0,1.43-.59h0a2,2,0,0,0,.59-1.43V70.67a2,2,0,0,0-.59-1.43h0a2,2,0,0,0-2.86,0Zm0-7.35a2,2,0,0,0-.59,1.43v.16a2,2,0,1,0,4,0v-.16a2,2,0,0,0-.59-1.43h0a2,2,0,0,0-2.86,0Zm-18.92,7.35a2,2,0,0,0-1.43-.59,7.48,7.48,0,0,0-1.6.17,8.11,8.11,0,0,0-1.53.52l-.46.22-.37-.35a2.13,2.13,0,0,0-.65-.42,2,2,0,0,0-.75-.14,2,2,0,0,0-1.43.59h0a2,2,0,0,0-.59,1.43V86.44a2,2,0,0,0,.59,1.43h0a2,2,0,0,0,1.43.59,2,2,0,0,0,2-2V75.91a3.12,3.12,0,0,1,.24-1.22,3.22,3.22,0,0,1,.71-1h0a3.41,3.41,0,0,1,2.38-1,2,2,0,0,0,1.43-.6,2,2,0,0,0,0-2.86Zm28.71,0a2,2,0,0,0-.59,1.43V86.44a2,2,0,0,0,2,2,2,2,0,0,0,1.43-.59h0a2,2,0,0,0,.58-1.43V75.91a3.13,3.13,0,0,1,.25-1.22,3.22,3.22,0,0,1,.71-1,3.48,3.48,0,0,1,2.38-1,3.49,3.49,0,0,1,1.29.25,3.27,3.27,0,0,1,1.8,1.75,3.27,3.27,0,0,1,.24,1.22V86.36a2,2,0,0,0,.59,1.43h0a2,2,0,0,0,1.44.59,2,2,0,0,0,2-2V75.91a7.11,7.11,0,0,0-.56-2.78,7.31,7.31,0,0,0-4-3.93,7.24,7.24,0,0,0-2.8-.55,7.48,7.48,0,0,0-1.6.17,7.26,7.26,0,0,0-1.53.52l-.46.21-.37-.35a2.31,2.31,0,0,0-.65-.41,2,2,0,0,0-2.18.45ZM196.58,84.93a2,2,0,0,0-1.43-.58h-2.54V63.4A2,2,0,0,0,192,62h0a2,2,0,0,0-2.86,0h0a2,2,0,0,0-.58,1.43V83.69a5,5,0,0,0,.32,1.79,4.55,4.55,0,0,0,.92,1.49,4.46,4.46,0,0,0,1.47,1,4.39,4.39,0,0,0,1.51.35h2.36a2,2,0,0,0,2-2A2,2,0,0,0,196.58,84.93Zm-38.25-9v0a3.31,3.31,0,0,1,.24-1.22,3.22,3.22,0,0,1,.71-1,3.48,3.48,0,0,1,2.38-1,3.49,3.49,0,0,1,1.29.25,3.38,3.38,0,0,1,1.1.72,3,3,0,0,1,.7,1,3.09,3.09,0,0,1,.24,1.22v.78h-6.66Zm8.08,9a2,2,0,0,0-1.42-.58h-6.66V80.73H167a2,2,0,0,0,1.43-.59,2,2,0,0,0,.59-1.43v-2.8a7.11,7.11,0,0,0-.56-2.78,7.41,7.41,0,0,0-1.62-2.37,7.49,7.49,0,0,0-2.39-1.56,7.33,7.33,0,0,0-2.81-.55,7.31,7.31,0,0,0-5.19,2.12h0a7.22,7.22,0,0,0-1.63,2.37,7.06,7.06,0,0,0-.56,2.77v7.78a5,5,0,0,0,.32,1.79,4.58,4.58,0,0,0,.93,1.49,4.31,4.31,0,0,0,3,1.4H165a2,2,0,0,0,2-2A2,2,0,0,0,166.41,84.93Z"/></g></g></svg>