<svg xmlns="http://www.w3.org/2000/svg" viewBox="0 0 37.19 33.43"><defs><style>.cls-1,.cls-2{fill:#828282;}.cls-1{fill-rule:evenodd;}</style></defs><title>Asset 8</title><g id="Layer_2" data-name="Layer 2"><g id="Layer_1-2" data-name="Layer 1"><path class="cls-1" d="M35.94,12c0-4.74-2.84-9.63-5.8-10.77H7.05c-3,1.14-5.8,6-5.8,10.77a3.68,3.68,0,0,0,1.66,3.21,3.49,3.49,0,0,0,3.61,0A3.67,3.67,0,0,0,8.17,12a3.69,3.69,0,0,0,1.68,3.21,3.49,3.49,0,0,0,3.61,0A3.68,3.68,0,0,0,15.13,12a3.66,3.66,0,0,0,1.66,3.21,3.49,3.49,0,0,0,3.61,0A3.68,3.68,0,0,0,22.06,12a3.68,3.68,0,0,0,1.67,3.21,3.49,3.49,0,0,0,3.61,0A3.7,3.7,0,0,0,29,12a3.67,3.67,0,0,0,1.65,3.21,3.49,3.49,0,0,0,3.61,0A3.68,3.68,0,0,0,35.94,12"/><path class="cls-2" d="M35.31,4.82A15.46,15.46,0,0,1,37.19,12a5.37,5.37,0,0,1-.58,2.46,4.49,4.49,0,0,1-1.68,1.81,4.68,4.68,0,0,1-2.45.69A4.74,4.74,0,0,1,30,16.29a4.61,4.61,0,0,1-1-.84,4.67,4.67,0,0,1-1,.84,4.71,4.71,0,0,1-4.91,0,4.44,4.44,0,0,1-1-.85,4.18,4.18,0,0,1-1,.85,4.71,4.71,0,0,1-4.91,0,4.67,4.67,0,0,1-1-.84,4.56,4.56,0,0,1-1,.84,4.74,4.74,0,0,1-2.46.69,4.71,4.71,0,0,1-3.47-1.53,4.61,4.61,0,0,1-1,.84A4.74,4.74,0,0,1,4.71,17a4.68,4.68,0,0,1-2.45-.69A4.49,4.49,0,0,1,.58,14.48,5.37,5.37,0,0,1,0,12a15.57,15.57,0,0,1,1.87-7.2A10.21,10.21,0,0,1,6.49.13,1.32,1.32,0,0,1,7.05,0H30.14a1.2,1.2,0,0,1,.45.09,10,10,0,0,1,4.72,4.73M34.69,12a13,13,0,0,0-1.57-6,7.94,7.94,0,0,0-3.23-3.5H7.29A8,8,0,0,0,4.07,6,13,13,0,0,0,2.5,12a2.91,2.91,0,0,0,.3,1.32,2,2,0,0,0,.75.82,2.21,2.21,0,0,0,1.16.32,2.16,2.16,0,0,0,1.16-.32,2.14,2.14,0,0,0,.76-.82A3,3,0,0,0,6.92,12h2.5a2.69,2.69,0,0,0,.31,1.3,2,2,0,0,0,.76.84,2.21,2.21,0,0,0,1.16.32,2.16,2.16,0,0,0,1.16-.32,2,2,0,0,0,.77-.83h0a2.83,2.83,0,0,0,.3-1.3h2.5a2.88,2.88,0,0,0,.3,1.32,2,2,0,0,0,.76.82,2.24,2.24,0,0,0,2.31,0,2.06,2.06,0,0,0,.76-.82,2.91,2.91,0,0,0,.3-1.32h2.5a2.83,2.83,0,0,0,.3,1.3l0,.08a2.07,2.07,0,0,0,.74.76,2.24,2.24,0,0,0,2.31,0,2,2,0,0,0,.77-.84l0-.07A2.81,2.81,0,0,0,27.77,12h2.5a2.9,2.9,0,0,0,.29,1.32,2.14,2.14,0,0,0,.76.82,2.24,2.24,0,0,0,2.31,0,2,2,0,0,0,.76-.82A2.91,2.91,0,0,0,34.69,12Z"/><path class="cls-2" d="M3.46,15.73a1.25,1.25,0,0,1,2.5,0v15.2H31.23V15.73a1.25,1.25,0,1,1,2.5,0V32.18a1.25,1.25,0,0,1-1.25,1.25H4.71a1.25,1.25,0,0,1-1.25-1.25Z"/><rect class="cls-2" x="22.18" y="21.16" width="4.74" height="11.02"/><path class="cls-2" d="M23.43,30.93h2.24V22.41H23.43Zm3.49,2.5H22.18a1.25,1.25,0,0,1-1.25-1.25v-11a1.25,1.25,0,0,1,1.25-1.25h4.74a1.25,1.25,0,0,1,1.25,1.25v11A1.25,1.25,0,0,1,26.92,33.43Z"/><rect class="cls-2" x="10.25" y="21.16" width="6.15" height="5.31"/><path class="cls-2" d="M11.5,25.21h3.65v-2.8H11.5Zm4.9,2.51H10.25A1.25,1.25,0,0,1,9,26.46v-5.3a1.25,1.25,0,0,1,1.25-1.25H16.4a1.25,1.25,0,0,1,1.25,1.25v5.3A1.25,1.25,0,0,1,16.4,27.72Z"/></g></g></svg>