<svg xmlns="http://www.w3.org/2000/svg" viewBox="0 0 39.43 39.43"><defs><style>.cls-1{fill:#2bdf82;}.cls-1,.cls-3{fill-rule:evenodd;}.cls-2{fill:#1a47d3;}.cls-3{fill:#fff;}</style></defs><title>Asset 26</title><g id="Layer_2" data-name="Layer 2"><g id="Layer_1-2" data-name="Layer 1"><path class="cls-1" d="M19.72,32.6h0A12.92,12.92,0,0,0,32.6,19.72h0A12.92,12.92,0,0,0,19.72,6.83h0A12.93,12.93,0,0,0,6.83,19.71h0A12.93,12.93,0,0,0,19.72,32.6"/><path class="cls-2" d="M19.72,33.85a14.17,14.17,0,1,1,10-4.15,14.11,14.11,0,0,1-10,4.15m0-2.5a11.68,11.68,0,1,0-8.22-3.42A11.6,11.6,0,0,0,19.72,31.35Z"/><path class="cls-3" d="M19.72,25h0A5.28,5.28,0,0,0,25,19.72h0a5.28,5.28,0,0,0-5.26-5.26h0a5.28,5.28,0,0,0-5.27,5.26h0A5.28,5.28,0,0,0,19.72,25"/><path class="cls-2" d="M19.72,26.23a6.49,6.49,0,0,1-4.6-1.91h0a6.48,6.48,0,0,1,0-9.19h0a6.48,6.48,0,0,1,9.19,0h0a6.48,6.48,0,0,1,0,9.19h0a6.49,6.49,0,0,1-4.59,1.91m0-2.5a4,4,0,0,0,2.83-1.17h0a4,4,0,0,0,0-5.67h0a4,4,0,0,0-5.67,0h0a4,4,0,0,0,0,5.67h0A4,4,0,0,0,19.72,23.73Z"/><path class="cls-2" d="M21,6.83a1.25,1.25,0,0,1-2.5,0V1.25a1.25,1.25,0,0,1,2.5,0Z"/><path class="cls-2" d="M21,38.18a1.25,1.25,0,0,1-2.5,0V32.6a1.25,1.25,0,0,1,2.5,0Z"/><path class="cls-2" d="M32.6,21a1.25,1.25,0,0,1,0-2.5h5.58a1.25,1.25,0,0,1,0,2.5Z"/><path class="cls-2" d="M1.25,21a1.25,1.25,0,0,1,0-2.5H6.83a1.25,1.25,0,0,1,0,2.5Z"/></g></g></svg>