<svg xmlns="http://www.w3.org/2000/svg" viewBox="0 0 28.97 31.45"><defs><style>.cls-1{fill:#fff;fill-rule:evenodd;}.cls-2{fill:#828282;}</style></defs><title>Asset 10</title><g id="Layer_2" data-name="Layer 2"><g id="Layer_1-2" data-name="Layer 1"><path class="cls-1" d="M7.87,12.47l2.92-2.81L9,2.32a1.31,1.31,0,0,0-1.21-.83L5.93,1.25c-3.36,1-4.26,3.83-4.65,6.87-.76,8,10.82,21.57,18.88,22.07,3.06.09,6-.36,7.5-3.52l.06-1.89a1.33,1.33,0,0,0-.63-1.33l-7-2.89L16.88,23a18,18,0,0,1-9-10.53"/><path class="cls-2" d="M11.65,10.56,9.3,12.83a16.38,16.38,0,0,0,3,5,16.55,16.55,0,0,0,4.48,3.71l2.6-2a1.26,1.26,0,0,1,1.23-.16l6.9,2.85.18.08a2.27,2.27,0,0,1,1,1.08A3,3,0,0,1,29,24.81l-.05,1.83a1.11,1.11,0,0,1-.12.56,6.79,6.79,0,0,1-3.86,3.62,12.63,12.63,0,0,1-4.74.62h-.11l-.29,0c-4.32-.41-9.41-4.05-13.33-8.63S-.25,12.61,0,8.29L.05,8A12.53,12.53,0,0,1,1.41,3.29,6.8,6.8,0,0,1,5.58.05a1.24,1.24,0,0,1,.51,0L8,.25A2.91,2.91,0,0,1,9.3.73a2.3,2.3,0,0,1,.9,1.19l0,.11L12,9.3a1.24,1.24,0,0,1-.33,1.26M7,11.55,9.41,9.26,7.85,2.77a.72.72,0,0,0-.2,0l-1.6-.2a4.26,4.26,0,0,0-2.47,2h0a10.36,10.36,0,0,0-1,3.71v.2C2.28,12.09,4.82,17,8.36,21.16s8,7.43,11.66,7.77l.23,0a10.29,10.29,0,0,0,3.8-.47,4.32,4.32,0,0,0,2.38-2.13l0-1.61a.62.62,0,0,0,0-.2L20.29,22l-2.66,2a1.24,1.24,0,0,1-1.34.1,18.34,18.34,0,0,1-5.91-4.65,18.52,18.52,0,0,1-3.7-6.63A1.25,1.25,0,0,1,7,11.55Z"/></g></g></svg>