<svg xmlns="http://www.w3.org/2000/svg" viewBox="0 0 31.206 31.206"><defs><style>.cls-1{fill:#1a47d4;}</style></defs><title>planet-1</title><g id="Layer_2" data-name="Layer 2"><g id="Layer_1-2" data-name="Layer 1"><path class="cls-1" d="M24.868,6.338A13.1,13.1,0,1,0,28.706,15.6a13.063,13.063,0,0,0-3.838-9.265M15.6,0A15.6,15.6,0,1,1,4.57,4.57,15.554,15.554,0,0,1,15.6,0Z"/><path class="cls-1" d="M2.027,12.351a1.246,1.246,0,0,1-.117-2.49c2.644-.133,3.041,2.17,3.434,4.451a8.759,8.759,0,0,0,.506,2.061c.115.23.4.291,1.076-.049a7.535,7.535,0,0,0,1.629-1.516,15.935,15.935,0,0,1,1.458-1.47c1.611-1.36,3.332-1.887,5.333.482.967,1.144.318,2.752-.355,4.422a7.063,7.063,0,0,0-.726,2.426A2.817,2.817,0,0,0,16.1,22.861c1.921,1.022,3.745,2,2.585,7.243a1.245,1.245,0,1,1-2.431-.537c.752-3.4-.261-3.942-1.326-4.509A4.872,4.872,0,0,1,11.8,21.049a7.755,7.755,0,0,1,.872-3.734c.388-.962.768-1.88.765-1.884a1.115,1.115,0,0,0-1.817-.188A14.243,14.243,0,0,0,10.4,16.488,8.762,8.762,0,0,1,8.039,18.55c-2.395,1.2-3.644.475-4.415-1.063a10.01,10.01,0,0,1-.741-2.755c-.206-1.2-.414-2.4-.856-2.381"/><path class="cls-1" d="M15.223,2.5c-.012,0,0,0,.016.01Zm-.2-2.492a1.25,1.25,0,1,1,.215,2.49l-.016,0,.016.01c.033.008.09.021.076.044a2.329,2.329,0,0,0-.253.739,3.568,3.568,0,0,0-.048.937c.022.241-.058.354-.023.38l0,0a3.668,3.668,0,0,0,1.816.3c2.157.007,3.957.014,3.957,4.194,0,1.764.582,2.68,1.376,3.022A3.18,3.18,0,0,0,24,12.237a5.3,5.3,0,0,0,2.017-.878c.824-.59,1.368-1.347,1.147-1.971a1.248,1.248,0,1,1,2.354-.83c.647,1.828-.369,3.63-2.046,4.833a7.867,7.867,0,0,1-2.994,1.3,5.637,5.637,0,0,1-3.318-.272c-1.668-.719-2.89-2.359-2.89-5.317,0-1.7-.663-1.7-1.456-1.7a5.634,5.634,0,0,1-3.086-.643l0,0a2.882,2.882,0,0,1-1.2-2.306,6.087,6.087,0,0,1,.087-1.611,4.8,4.8,0,0,1,.556-1.549A2.394,2.394,0,0,1,15.024.005Z"/></g></g></svg>