<svg xmlns="http://www.w3.org/2000/svg" viewBox="0 0 37.88 37.26"><defs><style>.cls-1{fill:#2bdf82;}.cls-1,.cls-2{fill-rule:evenodd;}.cls-2{fill:#fff;}.cls-3{fill:#828282;}.cls-4{fill:#1a47d3;}</style></defs><title>Asset 13</title><g id="Layer_2" data-name="Layer 2"><g id="Layer_1-2" data-name="Layer 1"><path class="cls-1" d="M35.56,15.64H7.18V36H36.63V16.71a1.08,1.08,0,0,0-1.07-1.07"/><path class="cls-2" d="M35.56,15.64H7.18V36H36.63V16.71a1.08,1.08,0,0,0-1.07-1.07"/><path class="cls-3" d="M7.18,14.39H35.56a2.32,2.32,0,0,1,2.32,2.32V36a1.25,1.25,0,0,1-1.25,1.25H7.18A1.25,1.25,0,0,1,5.93,36V15.64a1.25,1.25,0,0,1,1.25-1.25m28.2,2.5H8.43V34.76h27Z"/><polygon class="cls-2" points="11.74 36.01 2.62 36.01 3.96 1.25 10.4 1.25 11.74 36.01"/><path class="cls-4" d="M3.66,10.35a1.25,1.25,0,0,1,0-2.5h7a1.25,1.25,0,0,1,0,2.5Z"/><path class="cls-3" d="M2.62,3.07l.09-1.82A1.25,1.25,0,0,1,4,0H10.4a1.26,1.26,0,0,1,1.25,1.19L11.74,3a.76.76,0,0,1,0,.15A1.25,1.25,0,0,1,10.5,4.38H3.8A1.24,1.24,0,0,1,2.62,3.07"/><rect class="cls-4" x="2.23" y="8.36" width="9.9" height="1.88"/><path class="cls-3" d="M12.13,11.5H2.23A1.25,1.25,0,0,1,1,10.25V8.36A1.25,1.25,0,0,1,2.23,7.11h9.9a1.25,1.25,0,0,1,1.25,1.25v1.89a1.25,1.25,0,0,1-1.25,1.25"/><rect class="cls-4" x="1.25" y="34.13" width="10.49" height="1.88"/><path class="cls-3" d="M11.74,37.26H1.25A1.25,1.25,0,0,1,0,36V34.13a1.25,1.25,0,0,1,1.25-1.25H11.74A1.25,1.25,0,0,1,13,34.13V36a1.25,1.25,0,0,1-1.25,1.25"/><path class="cls-3" d="M3.92,34.76h6.53L9.2,2.5h-4Zm7.82,2.5H2.62A1.25,1.25,0,0,1,1.37,36s0-.1,0-.15L2.72,1.21A1.24,1.24,0,0,1,4,0H10.4a1.25,1.25,0,0,1,1.25,1.25v.06L13,36a1.26,1.26,0,0,1-1.21,1.29Z"/><rect class="cls-4" x="10.03" y="34.13" width="26.6" height="1.88"/><path class="cls-3" d="M36.63,37.26H10A1.25,1.25,0,0,1,8.78,36V34.13A1.25,1.25,0,0,1,10,32.88h26.6a1.25,1.25,0,0,1,1.25,1.25V36a1.25,1.25,0,0,1-1.25,1.25"/><rect class="cls-4" x="2.1" y="15.64" width="10.16" height="1.88"/><path class="cls-3" d="M12.26,18.77H2.1A1.25,1.25,0,0,1,.85,17.52V15.64A1.25,1.25,0,0,1,2.1,14.39H12.26a1.25,1.25,0,0,1,1.25,1.25v1.88a1.25,1.25,0,0,1-1.25,1.25"/><rect class="cls-4" x="1.66" y="22.92" width="11.05" height="1.88"/><path class="cls-3" d="M12.71,26.05h-11A1.25,1.25,0,0,1,.41,24.8V22.92a1.25,1.25,0,0,1,1.25-1.25H12.71A1.25,1.25,0,0,1,14,22.92V24.8a1.25,1.25,0,0,1-1.25,1.25"/></g></g></svg>