<svg xmlns="http://www.w3.org/2000/svg" viewBox="0 0 31.206 31.206"><defs><style>.cls-1{fill:#1a47d4;}</style></defs><title>question-1</title><g id="Layer_2" data-name="Layer 2"><g id="Layer_1-2" data-name="Layer 1"><path class="cls-1" d="M24.868,6.338A13.1,13.1,0,1,0,28.706,15.6a13.063,13.063,0,0,0-3.838-9.265M15.6,0A15.6,15.6,0,1,1,4.57,4.57,15.554,15.554,0,0,1,15.6,0Z"/><path class="cls-1" d="M13.278,11.592a1.245,1.245,0,1,1-2.49.039,4.814,4.814,0,1,1,9.626-.019h0A6.126,6.126,0,0,1,18.6,16.379c-.731.911-1.744,1.534-1.744,3.043a1.25,1.25,0,0,1-2.5,0c0-2.377,1.331-3.238,2.343-4.5a4.255,4.255,0,0,0,1.224-3.31h0v-.02a2.323,2.323,0,1,0-4.645,0m1.075,11.765a1.25,1.25,0,0,1,2.5,0v.178a1.251,1.251,0,0,1-2.5,0Z"/></g></g></svg>