<svg xmlns="http://www.w3.org/2000/svg" viewBox="0 0 30.43 36.4"><defs><style>.cls-1{fill:#2bdf82;}.cls-1,.cls-3{fill-rule:evenodd;}.cls-2,.cls-3{fill:#1a47d3;}</style></defs><title>Asset 34</title><g id="Layer_2" data-name="Layer 2"><g id="Layer_1-2" data-name="Layer 1"><path class="cls-1" d="M15.22,35.15H7.69a2.93,2.93,0,0,1-2.9-2.82l-2-25.64H27.6l-2,25.64a2.92,2.92,0,0,1-2.9,2.82Z"/><path class="cls-2" d="M7.69,33.9h15a1.53,1.53,0,0,0,1.09-.41,2.18,2.18,0,0,0,.57-1.3L26.25,7.94H4.18L6,32.19a2.12,2.12,0,0,0,.57,1.3,1.49,1.49,0,0,0,1.08.41m7.53,2.5H7.69a4,4,0,0,1-2.82-1.13,4.61,4.61,0,0,1-1.32-2.8l-2-25.69A1.25,1.25,0,0,1,2.74,5.45H27.6a1.25,1.25,0,0,1,1.25,1.25.81.81,0,0,1,0,.16l-2,25.62a4.56,4.56,0,0,1-1.32,2.8,4,4,0,0,1-2.82,1.13Z"/><rect class="cls-2" x="1.25" y="3.95" width="27.93" height="2.74"/><path class="cls-2" d="M29.18,7.94H1.25A1.25,1.25,0,0,1,0,6.69V4A1.25,1.25,0,0,1,1.25,2.7H29.18A1.25,1.25,0,0,1,30.43,4V6.69a1.25,1.25,0,0,1-1.25,1.25M2.5,5.44H27.93V5.2H2.5Z"/><path class="cls-2" d="M14.06,12.6a1.25,1.25,0,1,1,2.5,0V29.24a1.25,1.25,0,0,1-2.5,0Z"/><path class="cls-2" d="M7.6,12.67a1.25,1.25,0,0,1,2.49-.15l1,16.65a1.25,1.25,0,0,1-2.49.14Z"/><path class="cls-2" d="M20.34,12.49a1.26,1.26,0,0,1,1.35-1.14,1.25,1.25,0,0,1,1.14,1.35L21.44,29.34a1.25,1.25,0,0,1-2.49-.2Z"/><path class="cls-3" d="M11.92,2.76V4h6.6V2.76c-2.16-2-4.45-2-6.6,0"/><path class="cls-2" d="M14.13,2.74H16.3a2.57,2.57,0,0,0-2.17,0M10.68,4V2.84a1.23,1.23,0,0,1,.4-1A6,6,0,0,1,15.22,0,6,6,0,0,1,19.3,1.79a1.23,1.23,0,0,1,.47,1V4a1.25,1.25,0,0,1-1.25,1.25h-6.6A1.24,1.24,0,0,1,10.68,4Z"/></g></g></svg>