<svg xmlns="http://www.w3.org/2000/svg" viewBox="0 0 40.63 33.95"><defs><style>.cls-1{fill:#2bdf82;}.cls-1,.cls-2,.cls-5{fill-rule:evenodd;}.cls-2,.cls-6{fill:#fff;}.cls-3,.cls-5{fill:#828282;}.cls-4{fill:#1a47d3;}</style></defs><title>Asset 15</title><g id="Layer_2" data-name="Layer 2"><g id="Layer_1-2" data-name="Layer 1"><path class="cls-1" d="M39.38,1.25H15A1.85,1.85,0,0,0,13.11,3v19A1.85,1.85,0,0,0,15,23.82H39.38Z"/><path class="cls-2" d="M37.61,1.25H14.89A1.78,1.78,0,0,0,13.11,3v19a1.78,1.78,0,0,0,1.78,1.77H39a.36.36,0,0,0,.37-.36V3a1.78,1.78,0,0,0-1.77-1.77"/><path class="cls-3" d="M14.89,0H37.61a3,3,0,0,1,2.13.89h0A3,3,0,0,1,40.63,3V23.46a1.62,1.62,0,0,1-.47,1.14h0a1.6,1.6,0,0,1-1.14.47H14.89a3,3,0,0,1-3-3V3A3,3,0,0,1,12.75.89h0A3,3,0,0,1,14.89,0M37.61,2.5H14.89a.51.51,0,0,0-.37.16h0a.52.52,0,0,0-.16.37v19a.52.52,0,0,0,.16.37.54.54,0,0,0,.37.15H38.13V3a.51.51,0,0,0-.52-.52Z"/><rect class="cls-4" x="13.11" y="22.37" width="26.27" height="1.45"/><path class="cls-3" d="M39.38,24.82H13.11a1,1,0,0,1-1-1V22.37a1,1,0,0,1,1-1H39.38a1,1,0,0,1,1,1v1.45a1,1,0,0,1-1,1"/><path class="cls-3" d="M5.46,25.81a4.78,4.78,0,1,1-1.39,3.37,4.78,4.78,0,0,1,1.39-3.37m3.37,1.11a2.25,2.25,0,1,0,1.61.66A2.26,2.26,0,0,0,8.83,26.92Z"/><path class="cls-5" d="M13.11,27.94V23.82H39.38v4.12H34a3.46,3.46,0,0,0-3.26-2.27,3.53,3.53,0,0,0-3.31,2.27Z"/><path class="cls-3" d="M38.13,25.07h-5l.3.19a4.82,4.82,0,0,1,1.34,1.43h3.36Zm-23.77,0v1.62H26.64A4.73,4.73,0,0,1,28,25.27l.32-.2Zm-2.5,2.87V23.82a1.25,1.25,0,0,1,1.25-1.25H39.38a1.25,1.25,0,0,1,1.25,1.24h0v4.12a1.25,1.25,0,0,1-1.25,1.25H34a1.26,1.26,0,0,1-1.19-.88,2.23,2.23,0,0,0-.79-1,2.31,2.31,0,0,0-2.6,0,2.17,2.17,0,0,0-.82,1,1.27,1.27,0,0,1-1.17.82H13.11A1.25,1.25,0,0,1,11.86,27.94Z"/><path class="cls-5" d="M12.12,27.94h1V12.23H8.67a3.85,3.85,0,0,0-3.1,1.53L2.28,19.5a5.39,5.39,0,0,0-1,3.4v5h4.3a3.51,3.51,0,0,1,6.57,0"/><path class="cls-3" d="M11.86,25.5v-12H8.62a3.14,3.14,0,0,0-1.22.31,2,2,0,0,0-.75.61L3.33,20.18A4.33,4.33,0,0,0,2.5,22.9v3.79H4.78a4.61,4.61,0,0,1,1.35-1.43,4.73,4.73,0,0,1,5.41,0l.32.24m1.25,3.69h-1A1.26,1.26,0,0,1,11,28.38a2.28,2.28,0,0,0-.83-1.07,2.3,2.3,0,0,0-2.59,0,2.26,2.26,0,0,0-.8,1,1.25,1.25,0,0,1-1.19.88H1.25A1.25,1.25,0,0,1,0,27.94v-5a6.32,6.32,0,0,1,1.17-4l3.32-5.79h0l0-.07A4.39,4.39,0,0,1,6.3,11.55,5.68,5.68,0,0,1,8.51,11h4.6a1.25,1.25,0,0,1,1.25,1.25V27.94A1.25,1.25,0,0,1,13.11,29.19Z"/><path class="cls-2" d="M8.84,28.08a1.1,1.1,0,1,0,1.09,1.1,1.1,1.1,0,0,0-1.09-1.1"/><path class="cls-6" d="M8.73,29.28a.37.37,0,0,1,.11,0Zm.21-.2a.23.23,0,0,1-.1,0Zm0,.1a.21.21,0,0,1,0-.1l-.21.2a.21.21,0,0,0,0-.1Zm0,.1a.21.21,0,0,1,0-.1H8.69a.21.21,0,0,0,0-.1ZM7.17,27.52a2.36,2.36,0,0,1,4,1.66,2.35,2.35,0,1,1-4.7,0A2.38,2.38,0,0,1,7.17,27.52Zm1.67,1.66-.11-.1a.36.36,0,0,0,.11,0Zm0,.15s.07,0,.1,0l-.1-.1Z"/><path class="cls-2" d="M9.74,20.08H5.11l2.76-4.51c.47-.75.66-.92,1.85-.92Z"/><path class="cls-6" d="M7.34,18.83H8.49V17Zm2.4,2.5H5.11a1.25,1.25,0,0,1-1.25-1.25,1.19,1.19,0,0,1,.23-.72l2.72-4.45a2.93,2.93,0,0,1,1.13-1.18,3.58,3.58,0,0,1,1.78-.33A1.25,1.25,0,0,1,11,14.65v5.43a1.25,1.25,0,0,1-1.24,1.25Z"/><path class="cls-3" d="M27.33,25.81a4.78,4.78,0,1,1-1.39,3.37,4.78,4.78,0,0,1,1.39-3.37m3.37,1.11a2.25,2.25,0,1,0,1.61.66A2.26,2.26,0,0,0,30.7,26.92Z"/><path class="cls-2" d="M30.7,28.08a1.1,1.1,0,1,0,1.1,1.1,1.1,1.1,0,0,0-1.1-1.1"/><path class="cls-6" d="M30.7,29a.23.23,0,0,1-.1,0Zm.15.14a.21.21,0,0,1,0-.1l-.21.2a.21.21,0,0,0,0-.1ZM29,27.52a2.35,2.35,0,0,1,4,1.66,2.35,2.35,0,1,1-4.69,0A2.38,2.38,0,0,1,29,27.52Zm1.77,1.76-.1-.1h.14A.21.21,0,0,0,30.81,29.28Zm-.11,0a.37.37,0,0,1,.11,0l-.11-.1h-.14a.21.21,0,0,0,0-.1l.1.1.11-.1a.36.36,0,0,1-.11,0v.14l-.1-.1Zm0,0v-.15l-.1.1s.09,0,.1,0"/></g></g></svg>